<svg width="11" height="9" viewBox="0 0 11 9" fill="none" xmlns="http://www.w3.org/2000/svg">
<path d="M3.48759e-09 2.562L5.327 5.3325C5.38043 5.36028 5.43977 5.37479 5.5 5.37479C5.56023 5.37479 5.61957 5.36028 5.673 5.3325L11 2.5625V7.375C11 7.79007 10.8412 8.18941 10.5562 8.49112C10.2711 8.79282 9.8814 8.974 9.467 8.9975L9.375 9H1.625C1.20993 9.00003 0.810586 8.84122 0.508885 8.55616C0.207184 8.2711 0.0259993 7.8814 0.00250006 7.467L3.48759e-09 7.375V2.562ZM1.625 3.48759e-09H9.375C9.79007 -2.71734e-05 10.1894 0.158777 10.4911 0.443836C10.7928 0.728895 10.974 1.1186 10.9975 1.533L11 1.625V1.717L5.5 4.577L3.48759e-09 1.717V1.625C-2.71734e-05 1.20993 0.158777 0.810586 0.443836 0.508885C0.728895 0.207184 1.1186 0.0259993 1.533 0.00250006L1.625 3.48759e-09H9.375H1.625Z" fill="white"/>
</svg>
